<?xml version="1.0" encoding="UTF-8" standalone="no"?>
<!-- Created with Inkscape (http://www.inkscape.org/) -->

<svg
   xmlns:dc="http://purl.org/dc/elements/1.1/"
   xmlns:cc="http://creativecommons.org/ns#"
   xmlns:rdf="http://www.w3.org/1999/02/22-rdf-syntax-ns#"
   xmlns:svg="http://www.w3.org/2000/svg"
   xmlns="http://www.w3.org/2000/svg"
   xmlns:xlink="http://www.w3.org/1999/xlink"
   xmlns:sodipodi="http://sodipodi.sourceforge.net/DTD/sodipodi-0.dtd"
   xmlns:inkscape="http://www.inkscape.org/namespaces/inkscape"
   inkscape:export-ydpi="90"
   inkscape:export-xdpi="90"
   inkscape:export-filename="C:\Users\Owner\Desktop\icon3.png"
   width="48px"
   height="48px"
   id="svg11300"
   sodipodi:version="0.32"
   inkscape:version="0.48.4 r9939"
   sodipodi:docname="icon.svg"
   inkscape:output_extension="org.inkscape.output.svg.inkscape"
   version="1.1">
  <defs
     id="defs3">
    <linearGradient
       inkscape:collect="always"
       id="linearGradient4816">
      <stop
         style="stop-color:#204a87;stop-opacity:1;"
         offset="0"
         id="stop4818" />
      <stop
         style="stop-color:#204a87;stop-opacity:0;"
         offset="1"
         id="stop4820" />
    </linearGradient>
    <linearGradient
       inkscape:collect="always"
       id="linearGradient4808">
      <stop
         style="stop-color:#000000;stop-opacity:1;"
         offset="0"
         id="stop4810" />
      <stop
         style="stop-color:#000000;stop-opacity:0;"
         offset="1"
         id="stop4812" />
    </linearGradient>
    <linearGradient
       id="linearGradient3832">
      <stop
         style="stop-color:#ffffff;stop-opacity:1;"
         offset="0"
         id="stop3834" />
      <stop
         style="stop-color:#e0e0e0;stop-opacity:1;"
         offset="1"
         id="stop3836" />
    </linearGradient>
    <linearGradient
       inkscape:collect="always"
       xlink:href="#linearGradient3832"
       id="linearGradient3838"
       x1="17.88068"
       y1="11.072588"
       x2="17.88068"
       y2="21.767578"
       gradientUnits="userSpaceOnUse"
       gradientTransform="matrix(0.993847,0.000000,0.000000,0.984817,-0.192265,-0.512678)" />
    <radialGradient
       inkscape:collect="always"
       xlink:href="#linearGradient4808"
       id="radialGradient4814"
       cx="17.368311"
       cy="25.681942"
       fx="17.368311"
       fy="25.681942"
       r="11.799845"
       gradientTransform="matrix(1.000000,0.000000,0.000000,0.385768,8.417746e-16,15.77468)"
       gradientUnits="userSpaceOnUse" />
    <linearGradient
       inkscape:collect="always"
       xlink:href="#linearGradient4816"
       id="linearGradient4822"
       x1="13.267747"
       y1="7.7190704"
       x2="13.267747"
       y2="12.480761"
       gradientUnits="userSpaceOnUse" />
    <radialGradient
       inkscape:collect="always"
       xlink:href="#linearGradient4808"
       id="radialGradient4832"
       gradientUnits="userSpaceOnUse"
       gradientTransform="matrix(1.000000,0.000000,0.000000,0.385768,9.076565e-15,15.77468)"
       cx="17.368311"
       cy="25.681942"
       fx="17.368311"
       fy="25.681942"
       r="11.799845" />
    <linearGradient
       inkscape:collect="always"
       xlink:href="#linearGradient3832"
       id="linearGradient4834"
       gradientUnits="userSpaceOnUse"
       gradientTransform="matrix(0.993847,0.000000,0.000000,0.984817,-0.192265,-0.512678)"
       x1="17.88068"
       y1="11.072588"
       x2="17.88068"
       y2="21.767578" />
    <linearGradient
       inkscape:collect="always"
       xlink:href="#linearGradient4816"
       id="linearGradient4836"
       gradientUnits="userSpaceOnUse"
       x1="13.267747"
       y1="7.7190704"
       x2="13.267747"
       y2="12.480761" />
    <linearGradient
       inkscape:collect="always"
       xlink:href="#linearGradient7648"
       id="linearGradient7671"
       gradientUnits="userSpaceOnUse"
       gradientTransform="matrix(1.098989,0,0,-0.797757,-1.953865,37.324)"
       x1="21.9326"
       y1="24.627399"
       x2="21.9326"
       y2="7.1090999" />
    <linearGradient
       id="linearGradient7648"
       gradientUnits="userSpaceOnUse"
       x1="21.9326"
       y1="24.627399"
       x2="21.9326"
       y2="7.1090999">
      <stop
         offset="0"
         style="stop-color:#8595bc;stop-opacity:1;"
         id="stop7650" />
      <stop
         offset="1"
         style="stop-color:#041a3b;stop-opacity:1;"
         id="stop7652" />
    </linearGradient>
    <linearGradient
       inkscape:collect="always"
       xlink:href="#aigrd3"
       id="linearGradient7673"
       gradientUnits="userSpaceOnUse"
       gradientTransform="matrix(1.098989,0,0,1.106697,-1.953865,-4.922453)"
       x1="21.9326"
       y1="24.627399"
       x2="21.9326"
       y2="7.1090999" />
    <linearGradient
       y2="7.1090999"
       x2="21.9326"
       y1="24.627399"
       x1="21.9326"
       gradientUnits="userSpaceOnUse"
       id="aigrd3">
      <stop
         id="stop16199"
         style="stop-color:#D0D6E5;stroke-dasharray:none;stroke-miterlimit:4.0000000;stroke-width:1.2166667"
         offset="0" />
      <stop
         id="stop16201"
         style="stop-color:#093A80;stroke-dasharray:none;stroke-miterlimit:4.0000000;stroke-width:1.2166667"
         offset="1" />
    </linearGradient>
    <linearGradient
       inkscape:collect="always"
       xlink:href="#linearGradient7648"
       id="linearGradient4547"
       gradientUnits="userSpaceOnUse"
       gradientTransform="matrix(1.098989,0,0,-0.797757,-1.953865,37.324)"
       x1="21.9326"
       y1="24.627399"
       x2="21.9326"
       y2="7.1090999" />
    <linearGradient
       inkscape:collect="always"
       xlink:href="#aigrd3"
       id="linearGradient4549"
       gradientUnits="userSpaceOnUse"
       gradientTransform="matrix(1.098989,0,0,1.106697,-1.953865,-4.922453)"
       x1="21.9326"
       y1="24.627399"
       x2="21.9326"
       y2="7.1090999" />
    <linearGradient
       inkscape:collect="always"
       xlink:href="#linearGradient7648"
       id="linearGradient4592"
       gradientUnits="userSpaceOnUse"
       gradientTransform="matrix(1.098989,0,0,-0.797757,-1.953865,37.324)"
       x1="21.9326"
       y1="24.627399"
       x2="21.9326"
       y2="7.1090999" />
    <linearGradient
       inkscape:collect="always"
       xlink:href="#aigrd3"
       id="linearGradient4594"
       gradientUnits="userSpaceOnUse"
       gradientTransform="matrix(1.098989,0,0,1.106697,-1.953865,-4.922453)"
       x1="21.9326"
       y1="24.627399"
       x2="21.9326"
       y2="7.1090999" />
    <linearGradient
       inkscape:collect="always"
       xlink:href="#linearGradient7648"
       id="linearGradient4676"
       gradientUnits="userSpaceOnUse"
       gradientTransform="matrix(1.098989,0,0,-0.797757,-1.953865,37.324)"
       x1="21.9326"
       y1="24.627399"
       x2="21.9326"
       y2="7.1090999" />
    <linearGradient
       inkscape:collect="always"
       xlink:href="#aigrd3"
       id="linearGradient4678"
       gradientUnits="userSpaceOnUse"
       gradientTransform="matrix(1.098989,0,0,1.106697,-1.953865,-4.922453)"
       x1="21.9326"
       y1="24.627399"
       x2="21.9326"
       y2="7.1090999" />
    <linearGradient
       inkscape:collect="always"
       xlink:href="#aigrd3"
       id="linearGradient4709"
       gradientUnits="userSpaceOnUse"
       gradientTransform="matrix(1.098989,0,0,1.106697,-1.953865,-4.922453)"
       x1="21.9326"
       y1="24.627399"
       x2="21.9326"
       y2="7.1090999" />
  </defs>
  <sodipodi:namedview
     stroke="#ef2929"
     fill="#eeeeec"
     id="base"
     pagecolor="#ffffff"
     bordercolor="#666666"
     borderopacity="0.25490196"
     inkscape:pageopacity="0.0"
     inkscape:pageshadow="2"
     inkscape:zoom="5.6568542"
     inkscape:cx="-0.8462785"
     inkscape:cy="26.329123"
     inkscape:current-layer="g4680"
     showgrid="false"
     inkscape:grid-bbox="true"
     inkscape:document-units="px"
     inkscape:showpageshadow="false"
     inkscape:window-width="1366"
     inkscape:window-height="705"
     inkscape:window-x="-8"
     inkscape:window-y="-8"
     inkscape:snap-center="true"
     inkscape:window-maximized="1" />
  <metadata
     id="metadata4">
    <rdf:RDF>
      <cc:Work
         rdf:about="">
        <dc:format>image/svg+xml</dc:format>
        <dc:type
           rdf:resource="http://purl.org/dc/dcmitype/StillImage" />
        <dc:creator>
          <cc:Agent>
            <dc:title>Jakub Steiner</dc:title>
          </cc:Agent>
        </dc:creator>
        <dc:source>http://jimmac.musichall.cz</dc:source>
        <cc:license
           rdf:resource="http://creativecommons.org/licenses/by-sa/2.0/" />
        <dc:title>Windows</dc:title>
        <dc:subject>
          <rdf:Bag>
            <rdf:li>window</rdf:li>
            <rdf:li>manager</rdf:li>
            <rdf:li>decoration</rdf:li>
            <rdf:li>behavior</rdf:li>
          </rdf:Bag>
        </dc:subject>
      </cc:Work>
      <cc:License
         rdf:about="http://creativecommons.org/licenses/by-sa/2.0/">
        <cc:permits
           rdf:resource="http://web.resource.org/cc/Reproduction" />
        <cc:permits
           rdf:resource="http://web.resource.org/cc/Distribution" />
        <cc:requires
           rdf:resource="http://web.resource.org/cc/Notice" />
        <cc:requires
           rdf:resource="http://web.resource.org/cc/Attribution" />
        <cc:permits
           rdf:resource="http://web.resource.org/cc/DerivativeWorks" />
        <cc:requires
           rdf:resource="http://web.resource.org/cc/ShareAlike" />
      </cc:License>
    </rdf:RDF>
  </metadata>
  <g
     id="layer1"
     inkscape:label="Layer 1"
     inkscape:groupmode="layer">
    <path
       sodipodi:type="arc"
       style="opacity:0.56725146;color:#000000;fill:url(#radialGradient4814);fill-opacity:1;fill-rule:evenodd;stroke:none;stroke-width:2;stroke-linecap:round;stroke-linejoin:round;marker:none;marker-start:none;marker-mid:none;marker-end:none;stroke-miterlimit:4;stroke-dasharray:none;stroke-dashoffset:0;stroke-opacity:1;visibility:visible;display:inline;overflow:visible"
       id="path3933"
       sodipodi:cx="17.368311"
       sodipodi:cy="25.681942"
       sodipodi:rx="11.799845"
       sodipodi:ry="4.552"
       d="M 29.168156 25.681942 A 11.799845 4.552 0 1 1  5.5684662,25.681942 A 11.799845 4.552 0 1 1  29.168156 25.681942 z"
       transform="matrix(1.347209,0.000000,0.000000,1.000000,-6.295590,-8.838765e-2)" />
    <g
       id="g3822"
       transform="matrix(1.814279,0.000000,0.000000,1.599146,-7.071394,-9.273977)">
      <rect
         ry="0.69171613"
         rx="0.60969371"
         y="7.3579211"
         x="5.2738938"
         height="15.642846"
         width="15.987699"
         id="rect3818"
         style="opacity:1;color:#000000;fill:url(#linearGradient3838);fill-opacity:1;fill-rule:evenodd;stroke:#8d8d8d;stroke-width:0.58708906;stroke-linecap:butt;stroke-linejoin:miter;marker:none;marker-start:none;marker-mid:none;marker-end:none;stroke-miterlimit:4;stroke-dasharray:none;stroke-dashoffset:0;stroke-opacity:1;visibility:visible;display:inline;overflow:visible" />
      <rect
         style="opacity:1;color:#000000;fill:none;fill-opacity:1;fill-rule:evenodd;stroke:#ffffff;stroke-width:0.58708918;stroke-linecap:butt;stroke-linejoin:miter;marker:none;marker-start:none;marker-mid:none;marker-end:none;stroke-miterlimit:4;stroke-dasharray:none;stroke-dashoffset:0;stroke-opacity:0.47878789;visibility:visible;display:inline;overflow:visible"
         id="rect4962"
         width="14.758596"
         height="14.440255"
         x="5.8884473"
         y="7.959219"
         rx="0.22271593"
         ry="0.22271593" />
    </g>
    <path
       transform="matrix(1.347209,0.000000,0.000000,1.000000,6.728657,13.99651)"
       d="M 29.168156 25.681942 A 11.799845 4.552 0 1 1  5.5684662,25.681942 A 11.799845 4.552 0 1 1  29.168156 25.681942 z"
       sodipodi:ry="4.552"
       sodipodi:rx="11.799845"
       sodipodi:cy="25.681942"
       sodipodi:cx="17.368311"
       id="path4824"
       style="opacity:0.41520468;color:#000000;fill:url(#radialGradient4832);fill-opacity:1;fill-rule:evenodd;stroke:none;stroke-width:2;stroke-linecap:round;stroke-linejoin:round;marker:none;marker-start:none;marker-mid:none;marker-end:none;stroke-miterlimit:4;stroke-dasharray:none;stroke-dashoffset:0;stroke-opacity:1;visibility:visible;display:inline;overflow:visible"
       sodipodi:type="arc" />
    <g
       transform="matrix(1.814279,0.000000,0.000000,1.599146,5.952841,4.810926)"
       id="g4826">
      <g
         id="g4680">
        <g
           id="g4642"
           transform="matrix(0.38758239,0,0,0.43772901,-2.7057775,-1.3601464)">
          <path
             inkscape:connector-curvature="0"
             id="path4644"
             d="m 5.512695,30 34.130539,0 0,-10.372625 -34.130539,0 0,10.372625 z"
             style="fill:url(#linearGradient4676);fill-opacity:1;fill-rule:nonzero;stroke:none" />
          <path
             inkscape:connector-curvature="0"
             style="fill:url(#linearGradient4709);fill-rule:nonzero;stroke:none;fill-opacity:1"
             d="m 5.512695,5.237844 34.130539,0 0,14.389531 -34.130539,0 0,-14.389531 z"
             id="path4646" />
          <g
             id="g4648"
             style="fill-rule:nonzero;stroke:#000000;stroke-width:1.15611064;stroke-miterlimit:4"
             transform="matrix(1.189217,0,0,1.189217,-3.525355,-6.535408)">
            <g
               id="g4650">
              <path
                 inkscape:connector-curvature="0"
                 style="opacity:0.04999994;fill:#e8f52f;stroke:none"
                 d="m 18.4,15.4 c 0,2.2 -1.8,4.1 -4.1,4.1 -2.2,0 -4.1,-1.8 -4.1,-4.1 0,-2.2 1.8,-4.1 4.1,-4.1 2.2,0 4.1,1.8 4.1,4.1 z"
                 id="path4652" />
              <path
                 inkscape:connector-curvature="0"
                 style="opacity:0.20829994;fill:#ecf751;stroke:none"
                 d="m 18,15.4 c 0,2 -1.6,3.7 -3.7,3.7 -2,0 -3.7,-1.6 -3.7,-3.7 0,-2 1.6,-3.7 3.7,-3.7 2,0 3.7,1.6 3.7,3.7 l 0,0 z"
                 id="path4654" />
              <path
                 inkscape:connector-curvature="0"
                 style="opacity:0.36669994;fill:#f0f972;stroke:none"
                 d="m 17.6,15.4 c 0,1.8 -1.5,3.3 -3.3,3.3 -1.8,0 -3.3,-1.5 -3.3,-3.3 0,-1.8 1.5,-3.3 3.3,-3.3 1.8,0 3.3,1.5 3.3,3.3 l 0,0 z"
                 id="path4656" />
              <path
                 inkscape:connector-curvature="0"
                 style="opacity:0.525;fill:#f4fa95;stroke:none"
                 d="m 17.2,15.4 c 0,1.6 -1.3,2.9 -2.9,2.9 -1.6,0 -2.9,-1.3 -2.9,-2.9 0,-1.6 1.3,-2.9 2.9,-2.9 1.6,0 2.9,1.3 2.9,2.9 z"
                 id="path4658" />
              <path
                 inkscape:connector-curvature="0"
                 style="opacity:0.6833;fill:#f7fcb7;stroke:none"
                 d="m 16.8,15.4 c 0,1.4 -1.1,2.5 -2.5,2.5 -1.4,0 -2.5,-1.1 -2.5,-2.5 0,-1.4 1.1,-2.5 2.5,-2.5 1.4,0 2.5,1.1 2.5,2.5 l 0,0 z"
                 id="path4660" />
              <path
                 inkscape:connector-curvature="0"
                 style="opacity:0.8417;fill:#fbfddb;stroke:none"
                 d="m 16.4,15.4 c 0,1.2 -1,2.1 -2.1,2.1 -1.1,0 -2.1,-1 -2.1,-2.1 0,-1.1 1,-2.1 2.1,-2.1 1.1,0 2.1,1 2.1,2.1 z"
                 id="path4662" />
              <path
                 inkscape:connector-curvature="0"
                 style="fill:#ffffff;stroke:none"
                 d="m 16,15.4 c 0,1 -0.8,1.8 -1.8,1.8 -1,0 -1.8,-0.8 -1.8,-1.8 0,-1 0.8,-1.8 1.8,-1.8 1,0 1.8,0.8 1.8,1.8 l 0,0 z"
                 id="path4664" />
            </g>
          </g>
          <path
             inkscape:connector-curvature="0"
             style="opacity:0.3;fill-rule:nonzero;stroke:none"
             d="m 25.015859,21.649044 8.681289,0 1.664904,0.475688 -2.854121,0 c 0,0 2.854121,0.237842 4.281184,2.021669 1.427059,1.664904 -1.664905,3.686575 -1.664905,3.686575 0,0 0,0 0,0 -0.118922,-0.356766 -0.832454,-3.210889 -2.259514,-4.400106 -1.070297,-0.951374 -2.259514,-1.189218 -2.259514,-1.189218 l -5.589323,0 0,-0.475686 0,-0.118922 z"
             id="path4666" />
          <path
             inkscape:connector-curvature="0"
             style="opacity:0.3;fill-rule:nonzero;stroke:none"
             d="m 30.724106,22.362574 -4.994715,0 9.275897,5.232557 -4.281182,-5.232557 0,0 z"
             id="path4668" />
          <path
             inkscape:connector-curvature="0"
             style="fill:#515151;fill-rule:nonzero;stroke:none"
             d="m 25.015859,21.767966 8.681289,0 1.30814,-0.832453 -2.854121,0 c 0,0 2.616276,-0.475686 2.973043,-3.448731 0.356763,-2.973043 -4.043341,-6.302851 -4.043341,-6.302851 0,0 0,0 0,0.118922 0.118921,0.71353 1.308138,5.708243 0.475688,7.610993 -0.356767,1.664901 -1.427062,2.021667 -1.427062,2.021667 l -5.470401,0 0.237844,0.832453 0.118921,0 z"
             id="path4670" />
          <path
             inkscape:connector-curvature="0"
             style="fill:#515151;fill-rule:nonzero;stroke:none"
             d="m 30.248418,20.459827 -4.994714,0 5.946086,-9.038054 -0.951372,9.038054 z"
             id="path4672" />
        </g>
        <rect
           style="color:#000000;fill:none;stroke:#909090;stroke-width:0.58708894000000000;stroke-linecap:butt;stroke-linejoin:miter;stroke-miterlimit:4;stroke-opacity:1;stroke-dasharray:none;stroke-dashoffset:0;marker:none;visibility:visible;display:inline;overflow:visible"
           id="rect4674"
           width="12.883904"
           height="10.448284"
           x="-0.35294789"
           y="1.1474366" />
      </g>
      <rect
         style="opacity:1;color:#000000;fill:url(#linearGradient4834);fill-opacity:1;fill-rule:evenodd;stroke:#8d8d8d;stroke-width:0.58708906;stroke-linecap:butt;stroke-linejoin:miter;marker:none;marker-start:none;marker-mid:none;marker-end:none;stroke-miterlimit:4;stroke-dasharray:none;stroke-dashoffset:0;stroke-opacity:1;visibility:visible;display:inline;overflow:visible"
         id="rect4828"
         width="15.987699"
         height="15.642846"
         x="5.2738938"
         y="7.3579211"
         rx="0.60969371"
         ry="0.69171613" />
      <rect
         ry="0.14454938"
         rx="0.14454938"
         y="7.8840585"
         x="5.8116298"
         height="14.590583"
         width="14.912238"
         id="rect4958"
         style="opacity:1;color:#000000;fill:none;fill-opacity:1;fill-rule:evenodd;stroke:#ffffff;stroke-width:0.5870893;stroke-linecap:butt;stroke-linejoin:miter;marker:none;marker-start:none;marker-mid:none;marker-end:none;stroke-miterlimit:4;stroke-dasharray:none;stroke-dashoffset:0;stroke-opacity:0.54545456;visibility:visible;display:inline;overflow:visible" />
      <g
         id="g7654"
         transform="matrix(0.38758239,0,0,0.43772901,4.472967,7.4476248)">
        <path
           inkscape:connector-curvature="0"
           id="path7644"
           d="m 5.512695,30 34.130539,0 0,-10.372625 -34.130539,0 0,10.372625 z"
           style="fill:url(#linearGradient4592);fill-opacity:1;fill-rule:nonzero;stroke:none" />
        <path
           inkscape:connector-curvature="0"
           style="fill:url(#linearGradient4594);fill-rule:nonzero;stroke:none"
           d="m 5.512695,5.237844 34.130539,0 0,14.389531 -34.130539,0 0,-14.389531 z"
           id="path16203" />
        <g
           id="g16205"
           style="fill-rule:nonzero;stroke:#000000;stroke-width:1.15611064;stroke-miterlimit:4"
           transform="matrix(1.189217,0,0,1.189217,-3.525355,-6.535408)">
          <g
             id="g16207">
            <path
               inkscape:connector-curvature="0"
               style="opacity:0.04999994;fill:#e8f52f;stroke:none"
               d="m 18.4,15.4 c 0,2.2 -1.8,4.1 -4.1,4.1 -2.2,0 -4.1,-1.8 -4.1,-4.1 0,-2.2 1.8,-4.1 4.1,-4.1 2.2,0 4.1,1.8 4.1,4.1 z"
               id="path16209" />
            <path
               inkscape:connector-curvature="0"
               style="opacity:0.20829994;fill:#ecf751;stroke:none"
               d="m 18,15.4 c 0,2 -1.6,3.7 -3.7,3.7 -2,0 -3.7,-1.6 -3.7,-3.7 0,-2 1.6,-3.7 3.7,-3.7 2,0 3.7,1.6 3.7,3.7 l 0,0 z"
               id="path16211" />
            <path
               inkscape:connector-curvature="0"
               style="opacity:0.36669994;fill:#f0f972;stroke:none"
               d="m 17.6,15.4 c 0,1.8 -1.5,3.3 -3.3,3.3 -1.8,0 -3.3,-1.5 -3.3,-3.3 0,-1.8 1.5,-3.3 3.3,-3.3 1.8,0 3.3,1.5 3.3,3.3 l 0,0 z"
               id="path16213" />
            <path
               inkscape:connector-curvature="0"
               style="opacity:0.525;fill:#f4fa95;stroke:none"
               d="m 17.2,15.4 c 0,1.6 -1.3,2.9 -2.9,2.9 -1.6,0 -2.9,-1.3 -2.9,-2.9 0,-1.6 1.3,-2.9 2.9,-2.9 1.6,0 2.9,1.3 2.9,2.9 z"
               id="path16215" />
            <path
               inkscape:connector-curvature="0"
               style="opacity:0.6833;fill:#f7fcb7;stroke:none"
               d="m 16.8,15.4 c 0,1.4 -1.1,2.5 -2.5,2.5 -1.4,0 -2.5,-1.1 -2.5,-2.5 0,-1.4 1.1,-2.5 2.5,-2.5 1.4,0 2.5,1.1 2.5,2.5 l 0,0 z"
               id="path16217" />
            <path
               inkscape:connector-curvature="0"
               style="opacity:0.8417;fill:#fbfddb;stroke:none"
               d="m 16.4,15.4 c 0,1.2 -1,2.1 -2.1,2.1 -1.1,0 -2.1,-1 -2.1,-2.1 0,-1.1 1,-2.1 2.1,-2.1 1.1,0 2.1,1 2.1,2.1 z"
               id="path16219" />
            <path
               inkscape:connector-curvature="0"
               style="fill:#ffffff;stroke:none"
               d="m 16,15.4 c 0,1 -0.8,1.8 -1.8,1.8 -1,0 -1.8,-0.8 -1.8,-1.8 0,-1 0.8,-1.8 1.8,-1.8 1,0 1.8,0.8 1.8,1.8 l 0,0 z"
               id="path16221" />
          </g>
        </g>
        <path
           inkscape:connector-curvature="0"
           style="opacity:0.3;fill-rule:nonzero;stroke:none"
           d="m 25.015859,21.649044 8.681289,0 1.664904,0.475688 -2.854121,0 c 0,0 2.854121,0.237842 4.281184,2.021669 1.427059,1.664904 -1.664905,3.686575 -1.664905,3.686575 0,0 0,0 0,0 -0.118922,-0.356766 -0.832454,-3.210889 -2.259514,-4.400106 -1.070297,-0.951374 -2.259514,-1.189218 -2.259514,-1.189218 l -5.589323,0 0,-0.475686 0,-0.118922 z"
           id="path16223" />
        <path
           inkscape:connector-curvature="0"
           style="opacity:0.3;fill-rule:nonzero;stroke:none"
           d="m 30.724106,22.362574 -4.994715,0 9.275897,5.232557 -4.281182,-5.232557 0,0 z"
           id="path16225" />
        <path
           inkscape:connector-curvature="0"
           style="fill:#515151;fill-rule:nonzero;stroke:none"
           d="m 25.015859,21.767966 8.681289,0 1.30814,-0.832453 -2.854121,0 c 0,0 2.616276,-0.475686 2.973043,-3.448731 0.356763,-2.973043 -4.043341,-6.302851 -4.043341,-6.302851 0,0 0,0 0,0.118922 0.118921,0.71353 1.308138,5.708243 0.475688,7.610993 -0.356767,1.664901 -1.427062,2.021667 -1.427062,2.021667 l -5.470401,0 0.237844,0.832453 0.118921,0 z"
           id="path16227" />
        <path
           inkscape:connector-curvature="0"
           style="fill:#515151;fill-rule:nonzero;stroke:none"
           d="m 30.248418,20.459827 -4.994714,0 5.946086,-9.038054 -0.951372,9.038054 z"
           id="path16229" />
      </g>
      <rect
         style="opacity:1;color:#000000;fill:none;stroke:#909090;stroke-width:0.58708895000000005;stroke-linecap:butt;stroke-linejoin:miter;stroke-miterlimit:4;stroke-opacity:1;stroke-dasharray:none;stroke-dashoffset:0;marker:none;visibility:visible;display:inline;overflow:visible"
         id="rect8163"
         width="12.883904"
         height="10.448284"
         x="6.8257966"
         y="9.9552078" />
      <rect
         y="9.9552078"
         x="6.8257966"
         height="10.448284"
         width="12.883904"
         id="rect4596"
         style="opacity:0.84659094999999984;color:#000000;fill:none;stroke:#800080;stroke-width:0.39139258999999998;stroke-linecap:butt;stroke-linejoin:miter;stroke-miterlimit:4;stroke-opacity:0;stroke-dasharray:none;stroke-dashoffset:0;marker:none;visibility:visible;display:inline;overflow:visible" />
    </g>
  </g>
</svg>
